<svg xmlns="http://www.w3.org/2000/svg" viewBox="0 0 320 80" fill="none">
  <!-- Icon on dark bg -->
  <polygon points="36,6 58,18 58,42 36,54 14,42 14,18" fill="#1E293B" stroke="#60A5FA" stroke-width="2"/>
  <rect x="24" y="22" width="10" height="10" rx="1.5" fill="#60A5FA"/>
  <rect x="36" y="22" width="10" height="10" rx="1.5" fill="#4ADE80"/>
  <rect x="24" y="34" width="10" height="10" rx="1.5" fill="#4ADE80"/>
  <rect x="36" y="34" width="10" height="10" rx="1.5" fill="#60A5FA"/>
  <circle cx="52" cy="14" r="3" fill="#FDE047"/>
  <line x1="49" y1="14" x2="46" y2="17" stroke="#FDE047" stroke-width="1.5" stroke-linecap="round"/>
  <path d="M22 48 Q36 56 50 48" stroke="#60A5FA" stroke-width="1.5" fill="none" stroke-linecap="round"/>
  <circle cx="28" cy="51" r="1.5" fill="#4ADE80"/>
  <circle cx="44" cy="51" r="1.5" fill="#4ADE80"/>

  <!-- Wordmark light -->
  <text x="72" y="36" font-family="'Inter','Segoe UI',Arial,sans-serif" font-size="22" font-weight="700" fill="#F1F5F9" letter-spacing="-0.5">Smart</text>
  <text x="72" y="58" font-family="'Inter','Segoe UI',Arial,sans-serif" font-size="22" font-weight="700" fill="#60A5FA" letter-spacing="-0.5">Stock</text>
  <rect x="196" y="44" width="34" height="16" rx="4" fill="#4ADE80"/>
  <text x="200" y="56" font-family="'Inter','Segoe UI',Arial,sans-serif" font-size="11" font-weight="700" fill="#0F172A" letter-spacing="0.5">U.D</text>
  <text x="72" y="72" font-family="'Inter','Segoe UI',Arial,sans-serif" font-size="9" font-weight="400" fill="#94A3B8" letter-spacing="1.5">AI-POWERED INVENTORY</text>
</svg>
